<svg width="374" height="640" viewBox="0 0 374 640" fill="none" xmlns="http://www.w3.org/2000/svg">
<path fill-rule="evenodd" clip-rule="evenodd" d="M247.683 553.113L309.078 506.354C309.697 505.882 310.554 505.882 311.173 506.354L372.568 553.113C373.478 553.806 373.478 555.174 372.568 555.866L311.173 602.625C310.554 603.097 309.697 603.097 309.078 602.625L247.683 555.866C246.773 555.174 246.773 553.806 247.683 553.113ZM368.666 554.489L310.125 509.903L251.583 554.489L310.125 599.075L368.666 554.489Z" fill="#FFDBA9"/>
<path d="M371.52 552.761C372.419 552.761 373.158 553.445 373.242 554.323L373.249 554.49V622.512C373.249 622.991 373.051 623.447 372.705 623.772L372.568 623.887L311.173 670.647C310.602 671.082 309.827 671.115 309.224 670.747L309.078 670.647L247.683 623.887C247.301 623.597 247.059 623.162 247.009 622.689L247 622.512V554.49C247 553.534 247.775 552.761 248.729 552.761C249.629 552.761 250.368 553.445 250.452 554.323L250.459 554.49V621.654L310.125 667.097L369.79 621.654V554.49C369.79 553.591 370.476 552.852 371.354 552.768L371.52 552.761Z" fill="#FFDBA9"/>
<path d="M310.126 599.519C311.024 599.519 311.763 600.205 311.847 601.083L311.855 601.249V669.27C311.855 670.226 311.08 671 310.126 671C309.226 671 308.487 670.314 308.403 669.437L308.396 669.27V601.249C308.396 600.294 309.17 599.519 310.126 599.519Z" fill="#FFDBA9"/>
<path d="M310.427 509.217L251.137 554.259L309.967 599.301L369.258 554.259L310.427 509.217Z" fill="#FFDBA9"/>
<path fill-rule="evenodd" clip-rule="evenodd" d="M-92.5148 63.5073L41.0643 -38.2305C42.4114 -39.2565 44.2754 -39.2565 45.6225 -38.2305L179.202 63.5073C181.181 65.015 181.181 67.9901 179.202 69.4953L45.6225 171.233C44.2754 172.259 42.4114 172.259 41.0643 171.233L-92.5148 69.4953C-94.4941 67.9901 -94.4941 65.015 -92.5148 63.5073ZM170.713 66.5L43.3422 -30.5091L-84.0283 66.5L43.3422 163.509L170.713 66.5Z" fill="#FFDBA9"/>
<path d="M176.921 62.7397C178.878 62.7397 180.486 64.2299 180.669 66.1389L180.684 66.5026V214.501C180.684 215.545 180.253 216.536 179.5 217.243L179.202 217.494L45.6223 319.232C44.3806 320.177 42.6948 320.25 41.3828 319.45L41.0642 319.232L-92.5149 217.494C-93.3453 216.862 -93.8721 215.916 -93.9799 214.887L-94 214.501V66.5026C-94 64.423 -92.3142 62.7397 -90.2371 62.7397C-88.2804 62.7397 -86.6725 64.2299 -86.4894 66.1389L-86.4743 66.5026V212.635L43.3421 311.508L173.158 212.635V66.5026C173.158 64.5459 174.651 62.938 176.56 62.7548L176.921 62.7397Z" fill="#FFDBA9"/>
<path d="M43.3444 164.475C45.2986 164.475 46.9066 165.968 47.0897 167.877L47.1073 168.238V316.236C47.1073 318.316 45.4215 319.999 43.3444 319.999C41.3877 319.999 39.7798 318.507 39.5966 316.6L39.5815 316.236V168.238C39.5815 166.161 41.2648 164.475 43.3444 164.475Z" fill="#FFDBA9"/>
<path fill-rule="evenodd" clip-rule="evenodd" d="M43.3442 168.238L176.923 66.5005V214.499L43.3442 316.237V168.238Z" fill="#FFDBA9"/>
<path fill-rule="evenodd" clip-rule="evenodd" d="M62.9639 347.53L149.661 281.499C150.535 280.834 151.745 280.834 152.619 281.499L239.317 347.53C240.601 348.508 240.601 350.439 239.317 351.416L152.619 417.447C151.745 418.112 150.535 418.112 149.661 417.447L62.9639 351.416C61.6793 350.439 61.6793 348.508 62.9639 347.53ZM233.807 349.472L151.139 286.511L68.472 349.472L151.139 412.434L233.807 349.472Z" fill="#FFDBA9"/>
<path d="M237.836 347.032C239.106 347.032 240.15 347.999 240.269 349.238L240.279 349.474V445.528C240.279 446.206 239.999 446.849 239.51 447.308L239.316 447.471L152.619 513.501C151.813 514.115 150.719 514.162 149.868 513.643L149.661 513.501L62.9639 447.471C62.4249 447.061 62.083 446.447 62.013 445.779L62 445.528V349.474C62 348.124 63.0941 347.032 64.4422 347.032C65.7122 347.032 66.7558 347.999 66.8746 349.238L66.8844 349.474V444.317L151.139 508.488L235.394 444.317V349.474C235.394 348.204 236.363 347.16 237.602 347.041L237.836 347.032Z" fill="#FFDBA9"/>
<path d="M151.141 413.06C152.409 413.06 153.453 414.029 153.572 415.268L153.583 415.503V511.557C153.583 512.907 152.489 513.999 151.141 513.999C149.871 513.999 148.827 513.031 148.708 511.793L148.699 511.557V415.503C148.699 414.155 149.791 413.06 151.141 413.06Z" fill="#FFDBA9"/>
<path d="M151.566 285.543L67.8413 349.148L150.917 412.752L234.642 349.148L151.566 285.543Z" fill="#FFDBA9"/>
</svg>
