
<svg width="372" height="677" viewBox="0 0 372 677" fill="none" xmlns="http://www.w3.org/2000/svg">
<path fill-rule="evenodd" clip-rule="evenodd" d="M125.567 660.887L64.1722 707.646C63.553 708.118 62.6963 708.118 62.0772 707.646L0.682125 660.887C-0.227574 660.194 -0.227574 658.826 0.682125 658.134L62.0772 611.375C62.6963 610.903 63.553 610.903 64.1722 611.375L125.567 658.134C126.477 658.826 126.477 660.194 125.567 660.887ZM4.58381 659.511L63.1252 704.097L121.667 659.511L63.1252 614.925L4.58381 659.511Z" fill="#FFDBA9"/>
<path d="M1.73038 661.239C0.831055 661.239 0.0920028 660.555 0.00783525 659.677L0.000907747 659.51L0.0009018 591.488C0.000901758 591.009 0.199228 590.553 0.545122 590.228L0.682313 590.113L62.0774 543.353C62.6481 542.918 63.4229 542.885 64.0259 543.253L64.1724 543.353L125.567 590.113C125.949 590.403 126.191 590.838 126.241 591.311L126.25 591.488L126.25 659.51C126.25 660.466 125.475 661.239 124.521 661.239C123.621 661.239 122.882 660.555 122.798 659.677L122.791 659.51L122.791 592.346L63.1254 546.903L3.45984 592.346L3.45985 659.51C3.45985 660.409 2.77384 661.148 1.89642 661.232L1.73038 661.239Z" fill="#FFDBA9"/>
<path d="M63.1243 614.481C62.2262 614.481 61.4871 613.795 61.4029 612.917L61.3949 612.751L61.3949 544.73C61.3949 543.774 62.1697 543 63.1243 543C64.0237 543 64.7627 543.686 64.8469 544.563L64.8538 544.73L64.8538 612.751C64.8538 613.706 64.0802 614.481 63.1243 614.481Z" fill="#FFDBA9"/>
<path d="M62.8231 704.783L122.113 659.741L63.2827 614.699L3.99225 659.741L62.8231 704.783Z" fill="#FFDBA9"/>
<path fill-rule="evenodd" clip-rule="evenodd" d="M308.316 484.47L221.619 550.501C220.744 551.166 219.535 551.166 218.66 550.501L131.963 484.47C130.679 483.492 130.679 481.561 131.963 480.584L218.66 414.553C219.535 413.888 220.744 413.888 221.619 414.553L308.316 480.584C309.6 481.561 309.6 483.492 308.316 484.47ZM137.473 482.528L220.14 545.489L302.808 482.528L220.14 419.566L137.473 482.528Z" fill="#FFDBA9"/>
<path d="M133.443 484.968C132.173 484.968 131.13 484.001 131.011 482.762L131.001 482.526L131.001 386.472C131.001 385.794 131.281 385.151 131.77 384.692L131.963 384.529L218.66 318.499C219.466 317.885 220.56 317.838 221.412 318.357L221.619 318.499L308.316 384.529C308.855 384.939 309.197 385.553 309.267 386.221L309.28 386.472L309.28 482.526C309.28 483.876 308.186 484.968 306.838 484.968C305.568 484.968 304.524 484.001 304.405 482.762L304.395 482.526L304.395 387.683L220.14 323.512L135.886 387.683L135.886 482.526C135.886 483.796 134.917 484.84 133.678 484.959L133.443 484.968Z" fill="#FFDBA9"/>
<path d="M220.139 418.94C218.871 418.94 217.827 417.971 217.708 416.732L217.697 416.497L217.697 320.443C217.697 319.093 218.791 318.001 220.139 318.001C221.409 318.001 222.452 318.969 222.571 320.207L222.581 320.443L222.581 416.497C222.581 417.845 221.489 418.94 220.139 418.94Z" fill="#FFDBA9"/>
<path d="M219.713 546.457L303.438 482.852L220.362 419.248L136.637 482.852L219.713 546.457Z" fill="#FFDBA9"/>
<path fill-rule="evenodd" clip-rule="evenodd" d="M465.201 256.493L331.622 358.231C330.275 359.257 328.411 359.257 327.064 358.231L193.484 256.493C191.505 254.985 191.505 252.01 193.484 250.505L327.064 148.767C328.411 147.741 330.275 147.741 331.622 148.767L465.201 250.505C467.18 252.01 467.18 254.985 465.201 256.493ZM201.973 253.5L329.344 350.509L456.714 253.5L329.344 156.491L201.973 253.5Z" fill="#FFDBA9"/>
<path d="M195.765 257.26C193.808 257.26 192.2 255.77 192.017 253.861L192.002 253.497L192.002 105.499C192.002 104.455 192.433 103.465 193.186 102.757L193.485 102.506L327.064 0.768384C328.305 -0.177356 329.991 -0.250049 331.303 0.550213L331.622 0.768383L465.201 102.506C466.031 103.138 466.558 104.084 466.666 105.113L466.686 105.499L466.686 253.497C466.686 255.577 465 257.26 462.923 257.26C460.966 257.26 459.359 255.77 459.175 253.861L459.16 253.497L459.16 107.365L329.344 8.49223L199.528 107.365L199.528 253.497C199.528 255.454 198.035 257.062 196.126 257.245L195.765 257.26Z" fill="#FFDBA9"/>
<path d="M329.342 155.525C327.387 155.525 325.779 154.032 325.596 152.123L325.579 151.762L325.579 3.76363C325.579 1.68402 327.265 0.00076345 329.342 0.000763268C331.298 0.000763097 332.906 1.49332 333.089 3.39983L333.104 3.76363L333.104 151.762C333.104 153.839 331.421 155.525 329.342 155.525Z" fill="#FFDBA9"/>
<path fill-rule="evenodd" clip-rule="evenodd" d="M329.342 151.762L195.763 253.5L195.763 105.501L329.342 3.76329L329.342 151.762Z" fill="#FFDBA9"/>
</svg>
